<?xml version="1.0" encoding="utf-8" standalone="no"?>
<!DOCTYPE svg PUBLIC "-//W3C//DTD SVG 1.1//EN"
  "http://www.w3.org/Graphics/SVG/1.1/DTD/svg11.dtd">
<svg xmlns:xlink="http://www.w3.org/1999/xlink" width="442.291479pt" height="234.844408pt" viewBox="0 0 442.291479 234.844408" xmlns="http://www.w3.org/2000/svg" version="1.1">
 <metadata>
  <rdf:RDF xmlns:dc="http://purl.org/dc/elements/1.1/" xmlns:cc="http://creativecommons.org/ns#" xmlns:rdf="http://www.w3.org/1999/02/22-rdf-syntax-ns#">
   <cc:Work>
    <dc:type rdf:resource="http://purl.org/dc/dcmitype/StillImage"/>
    <dc:date>2026-09-25T23:32:59.823796</dc:date>
    <dc:format>image/svg+xml</dc:format>
    <dc:creator>
     <cc:Agent>
      <dc:title>Matplotlib v3.11.1, https://matplotlib.org/</dc:title>
     </cc:Agent>
    </dc:creator>
   </cc:Work>
  </rdf:RDF>
 </metadata>
 <defs>
  <style type="text/css">*{stroke-linejoin: round; stroke-linecap: butt}</style>
 </defs>
 <g id="figure_1">
  <g id="patch_1">
   <path d="M 0 234.844408 
L 442.291479 234.844408 
L 442.291479 -0 
L 0 -0 
z
" style="fill: #ffffff"/>
  </g>
  <g id="axes_1">
   <g id="patch_2">
    <path d="M 18.14875 174.540145 
L 255.893895 174.540145 
L 255.893895 20.037891 
L 18.14875 20.037891 
z
" style="fill: #ffffff"/>
   </g>
   <g id="matplotlib.axis_1">
    <g id="xtick_1">
     <g id="line2d_1">
      <defs>
       <path id="m6afb127b6e" d="M 0 0 
L 0 3 
" style="stroke: #000000; stroke-width: 0.8"/>
      </defs>
      <g>
       <use xlink:href="#m6afb127b6e" x="18.14875" y="174.540145" style="stroke: #000000; stroke-width: 0.8"/>
      </g>
     </g>
     <g id="text_1">
      <!-- 0.0 -->
      <g transform="translate(12.58875 187.040145) scale(0.08 -0.08)">
       <defs>
        <path id="Helvetica-13" d="M 1731 4475 
Q 2600 4475 2988 3759 
Q 3288 3206 3288 2244 
Q 3288 1331 3016 734 
Q 2622 -122 1728 -122 
Q 922 -122 528 578 
Q 200 1163 200 2147 
Q 200 2909 397 3456 
Q 766 4475 1731 4475 
z
M 1725 391 
Q 2163 391 2422 778 
Q 2681 1166 2681 2222 
Q 2681 2984 2493 3476 
Q 2306 3969 1766 3969 
Q 1269 3969 1039 3501 
Q 809 3034 809 2125 
Q 809 1441 956 1025 
Q 1181 391 1725 391 
z
" transform="scale(0.015625)"/>
        <path id="Helvetica-11" d="M 547 681 
L 1200 681 
L 1200 0 
L 547 0 
L 547 681 
z
" transform="scale(0.015625)"/>
       </defs>
       <use xlink:href="#Helvetica-13"/>
       <use xlink:href="#Helvetica-11" transform="translate(55.609375 0)"/>
       <use xlink:href="#Helvetica-13" transform="translate(83.390625 0)"/>
      </g>
     </g>
    </g>
    <g id="xtick_2">
     <g id="line2d_2">
      <g>
       <use xlink:href="#m6afb127b6e" x="65.697779" y="174.540145" style="stroke: #000000; stroke-width: 0.8"/>
      </g>
     </g>
     <g id="text_2">
      <!-- 0.5 -->
      <g transform="translate(60.137779 187.040145) scale(0.08 -0.08)">
       <defs>
        <path id="Helvetica-18" d="M 791 1141 
Q 847 659 1238 475 
Q 1438 381 1700 381 
Q 2200 381 2440 700 
Q 2681 1019 2681 1406 
Q 2681 1875 2395 2131 
Q 2109 2388 1709 2388 
Q 1419 2388 1211 2275 
Q 1003 2163 856 1963 
L 369 1991 
L 709 4400 
L 3034 4400 
L 3034 3856 
L 1131 3856 
L 941 2613 
Q 1097 2731 1238 2791 
Q 1488 2894 1816 2894 
Q 2431 2894 2859 2497 
Q 3288 2100 3288 1491 
Q 3288 856 2895 371 
Q 2503 -113 1644 -113 
Q 1097 -113 676 195 
Q 256 503 206 1141 
L 791 1141 
z
" transform="scale(0.015625)"/>
       </defs>
       <use xlink:href="#Helvetica-13"/>
       <use xlink:href="#Helvetica-11" transform="translate(55.609375 0)"/>
       <use xlink:href="#Helvetica-18" transform="translate(83.390625 0)"/>
      </g>
     </g>
    </g>
    <g id="xtick_3">
     <g id="line2d_3">
      <g>
       <use xlink:href="#m6afb127b6e" x="113.246808" y="174.540145" style="stroke: #000000; stroke-width: 0.8"/>
      </g>
     </g>
     <g id="text_3">
      <!-- 1.0 -->
      <g transform="translate(107.686808 187.040145) scale(0.08 -0.08)">
       <defs>
        <path id="Helvetica-14" d="M 613 3169 
L 613 3600 
Q 1222 3659 1462 3798 
Q 1703 3938 1822 4456 
L 2266 4456 
L 2266 0 
L 1666 0 
L 1666 3169 
L 613 3169 
z
" transform="scale(0.015625)"/>
       </defs>
       <use xlink:href="#Helvetica-14"/>
       <use xlink:href="#Helvetica-11" transform="translate(55.609375 0)"/>
       <use xlink:href="#Helvetica-13" transform="translate(83.390625 0)"/>
      </g>
     </g>
    </g>
    <g id="xtick_4">
     <g id="line2d_4">
      <g>
       <use xlink:href="#m6afb127b6e" x="160.795837" y="174.540145" style="stroke: #000000; stroke-width: 0.8"/>
      </g>
     </g>
     <g id="text_4">
      <!-- 1.5 -->
      <g transform="translate(155.235837 187.040145) scale(0.08 -0.08)">
       <use xlink:href="#Helvetica-14"/>
       <use xlink:href="#Helvetica-11" transform="translate(55.609375 0)"/>
       <use xlink:href="#Helvetica-18" transform="translate(83.390625 0)"/>
      </g>
     </g>
    </g>
    <g id="xtick_5">
     <g id="line2d_5">
      <g>
       <use xlink:href="#m6afb127b6e" x="208.344866" y="174.540145" style="stroke: #000000; stroke-width: 0.8"/>
      </g>
     </g>
     <g id="text_5">
      <!-- 2.0 -->
      <g transform="translate(202.784866 187.040145) scale(0.08 -0.08)">
       <defs>
        <path id="Helvetica-15" d="M 200 0 
Q 231 578 439 1006 
Q 647 1434 1250 1784 
L 1850 2131 
Q 2253 2366 2416 2531 
Q 2672 2791 2672 3125 
Q 2672 3516 2437 3745 
Q 2203 3975 1813 3975 
Q 1234 3975 1013 3538 
Q 894 3303 881 2888 
L 309 2888 
Q 319 3472 525 3841 
Q 891 4491 1816 4491 
Q 2584 4491 2939 4075 
Q 3294 3659 3294 3150 
Q 3294 2613 2916 2231 
Q 2697 2009 2131 1694 
L 1703 1456 
Q 1397 1288 1222 1134 
Q 909 863 828 531 
L 3272 531 
L 3272 0 
L 200 0 
z
" transform="scale(0.015625)"/>
       </defs>
       <use xlink:href="#Helvetica-15"/>
       <use xlink:href="#Helvetica-11" transform="translate(55.609375 0)"/>
       <use xlink:href="#Helvetica-13" transform="translate(83.390625 0)"/>
      </g>
     </g>
    </g>
    <g id="xtick_6">
     <g id="line2d_6">
      <g>
       <use xlink:href="#m6afb127b6e" x="255.893895" y="174.540145" style="stroke: #000000; stroke-width: 0.8"/>
      </g>
     </g>
     <g id="text_6">
      <!-- 2.5 -->
      <g transform="translate(250.333895 187.040145) scale(0.08 -0.08)">
       <use xlink:href="#Helvetica-15"/>
       <use xlink:href="#Helvetica-11" transform="translate(55.609375 0)"/>
       <use xlink:href="#Helvetica-18" transform="translate(83.390625 0)"/>
      </g>
     </g>
    </g>
   </g>
   <g id="matplotlib.axis_2">
    <g id="ytick_1">
     <g id="line2d_7">
      <path d="M 18.14875 174.540145 
L 255.893895 174.540145 
" clip-path="url(#p2a32e4a126)" style="fill: none; stroke: #eaeaea; stroke-opacity: 0.5; stroke-width: 0.5; stroke-linecap: square"/>
     </g>
     <g id="line2d_8">
      <defs>
       <path id="mcd42a1c581" d="M 0 0 
L -3 0 
" style="stroke: #000000; stroke-width: 0.8"/>
      </defs>
      <g>
       <use xlink:href="#mcd42a1c581" x="18.14875" y="174.540145" style="stroke: #000000; stroke-width: 0.8"/>
      </g>
     </g>
     <g id="text_7">
      <!-- 0 -->
      <g transform="translate(7.2 177.540145) scale(0.08 -0.08)">
       <use xlink:href="#Helvetica-13"/>
      </g>
     </g>
    </g>
    <g id="ytick_2">
     <g id="line2d_9">
      <path d="M 18.14875 143.639694 
L 255.893895 143.639694 
" clip-path="url(#p2a32e4a126)" style="fill: none; stroke: #eaeaea; stroke-opacity: 0.5; stroke-width: 0.5; stroke-linecap: square"/>
     </g>
     <g id="line2d_10">
      <g>
       <use xlink:href="#mcd42a1c581" x="18.14875" y="143.639694" style="stroke: #000000; stroke-width: 0.8"/>
      </g>
     </g>
     <g id="text_8">
      <!-- 1 -->
      <g transform="translate(7.2 146.639694) scale(0.08 -0.08)">
       <use xlink:href="#Helvetica-14"/>
      </g>
     </g>
    </g>
    <g id="ytick_3">
     <g id="line2d_11">
      <path d="M 18.14875 112.739243 
L 255.893895 112.739243 
" clip-path="url(#p2a32e4a126)" style="fill: none; stroke: #eaeaea; stroke-opacity: 0.5; stroke-width: 0.5; stroke-linecap: square"/>
     </g>
     <g id="line2d_12">
      <g>
       <use xlink:href="#mcd42a1c581" x="18.14875" y="112.739243" style="stroke: #000000; stroke-width: 0.8"/>
      </g>
     </g>
     <g id="text_9">
      <!-- 2 -->
      <g transform="translate(7.2 115.739243) scale(0.08 -0.08)">
       <use xlink:href="#Helvetica-15"/>
      </g>
     </g>
    </g>
    <g id="ytick_4">
     <g id="line2d_13">
      <path d="M 18.14875 81.838792 
L 255.893895 81.838792 
" clip-path="url(#p2a32e4a126)" style="fill: none; stroke: #eaeaea; stroke-opacity: 0.5; stroke-width: 0.5; stroke-linecap: square"/>
     </g>
     <g id="line2d_14">
      <g>
       <use xlink:href="#mcd42a1c581" x="18.14875" y="81.838792" style="stroke: #000000; stroke-width: 0.8"/>
      </g>
     </g>
     <g id="text_10">
      <!-- 3 -->
      <g transform="translate(7.2 84.838792) scale(0.08 -0.08)">
       <defs>
        <path id="Helvetica-16" d="M 1663 -122 
Q 869 -122 511 314 
Q 153 750 153 1375 
L 741 1375 
Q 778 941 903 744 
Q 1122 391 1694 391 
Q 2138 391 2406 628 
Q 2675 866 2675 1241 
Q 2675 1703 2392 1887 
Q 2109 2072 1606 2072 
Q 1550 2072 1492 2070 
Q 1434 2069 1375 2066 
L 1375 2563 
Q 1463 2553 1522 2550 
Q 1581 2547 1650 2547 
Q 1966 2547 2169 2647 
Q 2525 2822 2525 3272 
Q 2525 3606 2287 3787 
Q 2050 3969 1734 3969 
Q 1172 3969 956 3594 
Q 838 3388 822 3006 
L 266 3006 
Q 266 3506 466 3856 
Q 809 4481 1675 4481 
Q 2359 4481 2734 4176 
Q 3109 3872 3109 3294 
Q 3109 2881 2888 2625 
Q 2750 2466 2531 2375 
Q 2884 2278 3082 2001 
Q 3281 1725 3281 1325 
Q 3281 684 2859 281 
Q 2438 -122 1663 -122 
z
" transform="scale(0.015625)"/>
       </defs>
       <use xlink:href="#Helvetica-16"/>
      </g>
     </g>
    </g>
    <g id="ytick_5">
     <g id="line2d_15">
      <path d="M 18.14875 50.938341 
L 255.893895 50.938341 
" clip-path="url(#p2a32e4a126)" style="fill: none; stroke: #eaeaea; stroke-opacity: 0.5; stroke-width: 0.5; stroke-linecap: square"/>
     </g>
     <g id="line2d_16">
      <g>
       <use xlink:href="#mcd42a1c581" x="18.14875" y="50.938341" style="stroke: #000000; stroke-width: 0.8"/>
      </g>
     </g>
     <g id="text_11">
      <!-- 4 -->
      <g transform="translate(7.2 53.938341) scale(0.08 -0.08)">
       <defs>
        <path id="Helvetica-17" d="M 2116 1584 
L 2116 3613 
L 681 1584 
L 2116 1584 
z
M 2125 0 
L 2125 1094 
L 163 1094 
L 163 1644 
L 2213 4488 
L 2688 4488 
L 2688 1584 
L 3347 1584 
L 3347 1094 
L 2688 1094 
L 2688 0 
L 2125 0 
z
" transform="scale(0.015625)"/>
       </defs>
       <use xlink:href="#Helvetica-17"/>
      </g>
     </g>
    </g>
    <g id="ytick_6">
     <g id="line2d_17">
      <path d="M 18.14875 20.037891 
L 255.893895 20.037891 
" clip-path="url(#p2a32e4a126)" style="fill: none; stroke: #eaeaea; stroke-opacity: 0.5; stroke-width: 0.5; stroke-linecap: square"/>
     </g>
     <g id="line2d_18">
      <g>
       <use xlink:href="#mcd42a1c581" x="18.14875" y="20.037891" style="stroke: #000000; stroke-width: 0.8"/>
      </g>
     </g>
     <g id="text_12">
      <!-- 5 -->
      <g transform="translate(7.2 23.037891) scale(0.08 -0.08)">
       <use xlink:href="#Helvetica-18"/>
      </g>
     </g>
    </g>
   </g>
   <g id="PathCollection_1">
    <defs>
     <path id="m2cfe7b14e1" d="M 0 3 
C 0.795609 3 1.55874 2.683901 2.12132 2.12132 
C 2.683901 1.55874 3 0.795609 3 0 
C 3 -0.795609 2.683901 -1.55874 2.12132 -2.12132 
C 1.55874 -2.683901 0.795609 -3 0 -3 
C -0.795609 -3 -1.55874 -2.683901 -2.12132 -2.12132 
C -2.683901 -1.55874 -3 -0.795609 -3 0 
C -3 0.795609 -2.683901 1.55874 -2.12132 2.12132 
C -1.55874 2.683901 -0.795609 3 0 3 
z
" style="stroke: #ffffff; stroke-opacity: 0.75; stroke-width: 0.5"/>
    </defs>
    <g clip-path="url(#p2a32e4a126)">
     <use xlink:href="#m2cfe7b14e1" x="137.03948" y="63.642901" style="fill: #3b76b0; fill-opacity: 0.75; stroke: #ffffff; stroke-opacity: 0.75; stroke-width: 0.5"/>
     <use xlink:href="#m2cfe7b14e1" x="165.681156" y="146.70413" style="fill: #3b76b0; fill-opacity: 0.75; stroke: #ffffff; stroke-opacity: 0.75; stroke-width: 0.5"/>
     <use xlink:href="#m2cfe7b14e1" x="75.239212" y="66.567364" style="fill: #3b76b0; fill-opacity: 0.75; stroke: #ffffff; stroke-opacity: 0.75; stroke-width: 0.5"/>
     <use xlink:href="#m2cfe7b14e1" x="19.15019" y="73.034831" style="fill: #3b76b0; fill-opacity: 0.75; stroke: #ffffff; stroke-opacity: 0.75; stroke-width: 0.5"/>
     <use xlink:href="#m2cfe7b14e1" x="169.74826" y="116.702541" style="fill: #3b76b0; fill-opacity: 0.75; stroke: #ffffff; stroke-opacity: 0.75; stroke-width: 0.5"/>
     <use xlink:href="#m2cfe7b14e1" x="75.784341" y="140.126237" style="fill: #3b76b0; fill-opacity: 0.75; stroke: #ffffff; stroke-opacity: 0.75; stroke-width: 0.5"/>
     <use xlink:href="#m2cfe7b14e1" x="66.623956" y="119.527911" style="fill: #3b76b0; fill-opacity: 0.75; stroke: #ffffff; stroke-opacity: 0.75; stroke-width: 0.5"/>
     <use xlink:href="#m2cfe7b14e1" x="114.111869" y="106.126874" style="fill: #3b76b0; fill-opacity: 0.75; stroke: #ffffff; stroke-opacity: 0.75; stroke-width: 0.5"/>
     <use xlink:href="#m2cfe7b14e1" x="207.489037" y="76.565702" style="fill: #3b76b0; fill-opacity: 0.75; stroke: #ffffff; stroke-opacity: 0.75; stroke-width: 0.5"/>
     <use xlink:href="#m2cfe7b14e1" x="136.484823" y="52.302887" style="fill: #3b76b0; fill-opacity: 0.75; stroke: #ffffff; stroke-opacity: 0.75; stroke-width: 0.5"/>
     <use xlink:href="#m2cfe7b14e1" x="59.099628" y="154.737649" style="fill: #3b76b0; fill-opacity: 0.75; stroke: #ffffff; stroke-opacity: 0.75; stroke-width: 0.5"/>
     <use xlink:href="#m2cfe7b14e1" x="134.651404" y="169.108834" style="fill: #3b76b0; fill-opacity: 0.75; stroke: #ffffff; stroke-opacity: 0.75; stroke-width: 0.5"/>
     <use xlink:href="#m2cfe7b14e1" x="24.935" y="110.898958" style="fill: #3b76b0; fill-opacity: 0.75; stroke: #ffffff; stroke-opacity: 0.75; stroke-width: 0.5"/>
     <use xlink:href="#m2cfe7b14e1" x="106.819325" y="61.176554" style="fill: #3b76b0; fill-opacity: 0.75; stroke: #ffffff; stroke-opacity: 0.75; stroke-width: 0.5"/>
     <use xlink:href="#m2cfe7b14e1" x="137.82514" y="110.994277" style="fill: #3b76b0; fill-opacity: 0.75; stroke: #ffffff; stroke-opacity: 0.75; stroke-width: 0.5"/>
     <use xlink:href="#m2cfe7b14e1" x="112.652148" y="143.946854" style="fill: #3b76b0; fill-opacity: 0.75; stroke: #ffffff; stroke-opacity: 0.75; stroke-width: 0.5"/>
     <use xlink:href="#m2cfe7b14e1" x="20.391928" y="150.758893" style="fill: #3b76b0; fill-opacity: 0.75; stroke: #ffffff; stroke-opacity: 0.75; stroke-width: 0.5"/>
     <use xlink:href="#m2cfe7b14e1" x="149.770572" y="149.744792" style="fill: #3b76b0; fill-opacity: 0.75; stroke: #ffffff; stroke-opacity: 0.75; stroke-width: 0.5"/>
     <use xlink:href="#m2cfe7b14e1" x="88.433121" y="174.078586" style="fill: #3b76b0; fill-opacity: 0.75; stroke: #ffffff; stroke-opacity: 0.75; stroke-width: 0.5"/>
     <use xlink:href="#m2cfe7b14e1" x="176.020604" y="155.448477" style="fill: #3b76b0; fill-opacity: 0.75; stroke: #ffffff; stroke-opacity: 0.75; stroke-width: 0.5"/>
     <use xlink:href="#m2cfe7b14e1" x="69.045098" y="65.729503" style="fill: #3b76b0; fill-opacity: 0.75; stroke: #ffffff; stroke-opacity: 0.75; stroke-width: 0.5"/>
     <use xlink:href="#m2cfe7b14e1" x="115.108982" y="69.830847" style="fill: #3b76b0; fill-opacity: 0.75; stroke: #ffffff; stroke-opacity: 0.75; stroke-width: 0.5"/>
     <use xlink:href="#m2cfe7b14e1" x="139.82047" y="82.855918" style="fill: #3b76b0; fill-opacity: 0.75; stroke: #ffffff; stroke-opacity: 0.75; stroke-width: 0.5"/>
     <use xlink:href="#m2cfe7b14e1" x="35.550859" y="107.653793" style="fill: #3b76b0; fill-opacity: 0.75; stroke: #ffffff; stroke-opacity: 0.75; stroke-width: 0.5"/>
     <use xlink:href="#m2cfe7b14e1" x="114.725057" y="66.841027" style="fill: #3b76b0; fill-opacity: 0.75; stroke: #ffffff; stroke-opacity: 0.75; stroke-width: 0.5"/>
     <use xlink:href="#m2cfe7b14e1" x="86.859771" y="100.603515" style="fill: #3b76b0; fill-opacity: 0.75; stroke: #ffffff; stroke-opacity: 0.75; stroke-width: 0.5"/>
     <use xlink:href="#m2cfe7b14e1" x="29.418182" y="126.628155" style="fill: #3b76b0; fill-opacity: 0.75; stroke: #ffffff; stroke-opacity: 0.75; stroke-width: 0.5"/>
     <use xlink:href="#m2cfe7b14e1" x="79.589008" y="155.975188" style="fill: #3b76b0; fill-opacity: 0.75; stroke: #ffffff; stroke-opacity: 0.75; stroke-width: 0.5"/>
     <use xlink:href="#m2cfe7b14e1" x="173.413087" y="127.639914" style="fill: #3b76b0; fill-opacity: 0.75; stroke: #ffffff; stroke-opacity: 0.75; stroke-width: 0.5"/>
     <use xlink:href="#m2cfe7b14e1" x="204.302796" y="101.616108" style="fill: #3b76b0; fill-opacity: 0.75; stroke: #ffffff; stroke-opacity: 0.75; stroke-width: 0.5"/>
     <use xlink:href="#m2cfe7b14e1" x="133.228099" y="95.682617" style="fill: #3b76b0; fill-opacity: 0.75; stroke: #ffffff; stroke-opacity: 0.75; stroke-width: 0.5"/>
     <use xlink:href="#m2cfe7b14e1" x="146.806959" y="155.902474" style="fill: #3b76b0; fill-opacity: 0.75; stroke: #ffffff; stroke-opacity: 0.75; stroke-width: 0.5"/>
     <use xlink:href="#m2cfe7b14e1" x="101.894661" y="144.929607" style="fill: #3b76b0; fill-opacity: 0.75; stroke: #ffffff; stroke-opacity: 0.75; stroke-width: 0.5"/>
     <use xlink:href="#m2cfe7b14e1" x="94.702363" y="162.587345" style="fill: #3b76b0; fill-opacity: 0.75; stroke: #ffffff; stroke-opacity: 0.75; stroke-width: 0.5"/>
     <use xlink:href="#m2cfe7b14e1" x="202.225886" y="147.965258" style="fill: #3b76b0; fill-opacity: 0.75; stroke: #ffffff; stroke-opacity: 0.75; stroke-width: 0.5"/>
     <use xlink:href="#m2cfe7b14e1" x="145.915875" y="137.407681" style="fill: #3b76b0; fill-opacity: 0.75; stroke: #ffffff; stroke-opacity: 0.75; stroke-width: 0.5"/>
     <use xlink:href="#m2cfe7b14e1" x="184.394805" y="92.689209" style="fill: #3b76b0; fill-opacity: 0.75; stroke: #ffffff; stroke-opacity: 0.75; stroke-width: 0.5"/>
     <use xlink:href="#m2cfe7b14e1" x="43.181567" y="70.087435" style="fill: #3b76b0; fill-opacity: 0.75; stroke: #ffffff; stroke-opacity: 0.75; stroke-width: 0.5"/>
     <use xlink:href="#m2cfe7b14e1" x="197.874222" y="62.8144" style="fill: #3b76b0; fill-opacity: 0.75; stroke: #ffffff; stroke-opacity: 0.75; stroke-width: 0.5"/>
     <use xlink:href="#m2cfe7b14e1" x="126.507119" y="156.561032" style="fill: #3b76b0; fill-opacity: 0.75; stroke: #ffffff; stroke-opacity: 0.75; stroke-width: 0.5"/>
    </g>
   </g>
   <g id="text_13">
    <!-- ASPECT_RATIO.AUTO -->
    <g transform="translate(90.965932 14.037891) scale(0.09 -0.09)">
     <defs>
      <path id="DejaVuSansMono-24" d="M 1925 4109 
L 1259 1722 
L 2591 1722 
L 1925 4109 
z
M 1544 4666 
L 2309 4666 
L 3738 0 
L 3084 0 
L 2741 1216 
L 1106 1216 
L 769 0 
L 116 0 
L 1544 4666 
z
" transform="scale(0.015625)"/>
      <path id="DejaVuSansMono-36" d="M 3163 4506 
L 3163 3866 
Q 2875 4050 2586 4144 
Q 2297 4238 2003 4238 
Q 1556 4238 1297 4030 
Q 1038 3822 1038 3469 
Q 1038 3159 1208 2996 
Q 1378 2834 1844 2725 
L 2175 2650 
Q 2831 2497 3131 2169 
Q 3431 1841 3431 1275 
Q 3431 609 3018 259 
Q 2606 -91 1819 -91 
Q 1491 -91 1159 -20 
Q 828 50 494 191 
L 494 863 
Q 853 634 1173 528 
Q 1494 422 1819 422 
Q 2297 422 2562 636 
Q 2828 850 2828 1234 
Q 2828 1584 2645 1768 
Q 2463 1953 2009 2053 
L 1672 2131 
Q 1022 2278 728 2575 
Q 434 2872 434 3372 
Q 434 3997 854 4373 
Q 1275 4750 1972 4750 
Q 2241 4750 2537 4689 
Q 2834 4628 3163 4506 
z
" transform="scale(0.015625)"/>
      <path id="DejaVuSansMono-33" d="M 1247 4147 
L 1247 2394 
L 1978 2394 
Q 2416 2394 2661 2625 
Q 2906 2856 2906 3272 
Q 2906 3688 2662 3917 
Q 2419 4147 1978 4147 
L 1247 4147 
z
M 616 4666 
L 1978 4666 
Q 2759 4666 3162 4311 
Q 3566 3956 3566 3272 
Q 3566 2581 3164 2228 
Q 2763 1875 1978 1875 
L 1247 1875 
L 1247 0 
L 616 0 
L 616 4666 
z
" transform="scale(0.015625)"/>
      <path id="DejaVuSansMono-28" d="M 616 4666 
L 3384 4666 
L 3384 4134 
L 1247 4134 
L 1247 2753 
L 3291 2753 
L 3291 2222 
L 1247 2222 
L 1247 531 
L 3444 531 
L 3444 0 
L 616 0 
L 616 4666 
z
" transform="scale(0.015625)"/>
      <path id="DejaVuSansMono-26" d="M 3353 166 
Q 3113 38 2859 -26 
Q 2606 -91 2322 -91 
Q 1425 -91 929 543 
Q 434 1178 434 2328 
Q 434 3472 932 4111 
Q 1431 4750 2322 4750 
Q 2606 4750 2859 4686 
Q 3113 4622 3353 4494 
L 3353 3847 
Q 3122 4038 2856 4138 
Q 2591 4238 2322 4238 
Q 1706 4238 1400 3763 
Q 1094 3288 1094 2328 
Q 1094 1372 1400 897 
Q 1706 422 2322 422 
Q 2597 422 2861 522 
Q 3125 622 3353 813 
L 3353 166 
z
" transform="scale(0.015625)"/>
      <path id="DejaVuSansMono-37" d="M 147 4666 
L 3706 4666 
L 3706 4134 
L 2247 4134 
L 2247 0 
L 1613 0 
L 1613 4134 
L 147 4134 
L 147 4666 
z
" transform="scale(0.015625)"/>
      <path id="DejaVuSansMono-42" d="M 3853 -1259 
L 3853 -1509 
L 0 -1509 
L 0 -1259 
L 3853 -1259 
z
" transform="scale(0.015625)"/>
      <path id="DejaVuSansMono-35" d="M 2375 2203 
Q 2619 2141 2791 1967 
Q 2963 1794 3219 1275 
L 3853 0 
L 3175 0 
L 2619 1178 
Q 2378 1681 2186 1826 
Q 1994 1972 1684 1972 
L 1081 1972 
L 1081 0 
L 447 0 
L 447 4666 
L 1747 4666 
Q 2516 4666 2925 4319 
Q 3334 3972 3334 3316 
Q 3334 2853 3082 2561 
Q 2831 2269 2375 2203 
z
M 1081 4147 
L 1081 2491 
L 1772 2491 
Q 2225 2491 2447 2694 
Q 2669 2897 2669 3316 
Q 2669 3719 2433 3933 
Q 2197 4147 1747 4147 
L 1081 4147 
z
" transform="scale(0.015625)"/>
      <path id="DejaVuSansMono-2c" d="M 628 4666 
L 3219 4666 
L 3219 4134 
L 2241 4134 
L 2241 531 
L 3219 531 
L 3219 0 
L 628 0 
L 628 531 
L 1606 531 
L 1606 4134 
L 628 4134 
L 628 4666 
z
" transform="scale(0.015625)"/>
      <path id="DejaVuSansMono-32" d="M 2828 2328 
Q 2828 3356 2617 3797 
Q 2406 4238 1925 4238 
Q 1447 4238 1236 3797 
Q 1025 3356 1025 2328 
Q 1025 1303 1236 862 
Q 1447 422 1925 422 
Q 2406 422 2617 861 
Q 2828 1300 2828 2328 
z
M 3488 2328 
Q 3488 1109 3102 509 
Q 2716 -91 1925 -91 
Q 1134 -91 750 506 
Q 366 1103 366 2328 
Q 366 3550 752 4150 
Q 1138 4750 1925 4750 
Q 2716 4750 3102 4150 
Q 3488 3550 3488 2328 
z
" transform="scale(0.015625)"/>
      <path id="DejaVuSansMono-11" d="M 1528 953 
L 2316 953 
L 2316 0 
L 1528 0 
L 1528 953 
z
" transform="scale(0.015625)"/>
      <path id="DejaVuSansMono-38" d="M 459 1791 
L 459 4666 
L 1094 4666 
L 1094 1503 
Q 1094 1163 1112 1017 
Q 1131 872 1178 794 
Q 1278 609 1467 515 
Q 1656 422 1925 422 
Q 2197 422 2384 515 
Q 2572 609 2675 794 
Q 2722 872 2740 1015 
Q 2759 1159 2759 1497 
L 2759 4666 
L 3391 4666 
L 3391 1791 
Q 3391 1075 3302 773 
Q 3213 472 2994 275 
Q 2788 91 2522 0 
Q 2256 -91 1925 -91 
Q 1597 -91 1331 0 
Q 1066 91 856 275 
Q 641 469 550 776 
Q 459 1084 459 1791 
z
" transform="scale(0.015625)"/>
     </defs>
     <use xlink:href="#DejaVuSansMono-24"/>
     <use xlink:href="#DejaVuSansMono-36" transform="translate(60.203125 0)"/>
     <use xlink:href="#DejaVuSansMono-33" transform="translate(120.40625 0)"/>
     <use xlink:href="#DejaVuSansMono-28" transform="translate(180.609375 0)"/>
     <use xlink:href="#DejaVuSansMono-26" transform="translate(240.8125 0)"/>
     <use xlink:href="#DejaVuSansMono-37" transform="translate(301.015625 0)"/>
     <use xlink:href="#DejaVuSansMono-42" transform="translate(361.21875 0)"/>
     <use xlink:href="#DejaVuSansMono-35" transform="translate(421.421875 0)"/>
     <use xlink:href="#DejaVuSansMono-24" transform="translate(481.625 0)"/>
     <use xlink:href="#DejaVuSansMono-37" transform="translate(541.828125 0)"/>
     <use xlink:href="#DejaVuSansMono-2c" transform="translate(602.03125 0)"/>
     <use xlink:href="#DejaVuSansMono-32" transform="translate(662.234375 0)"/>
     <use xlink:href="#DejaVuSansMono-11" transform="translate(722.4375 0)"/>
     <use xlink:href="#DejaVuSansMono-24" transform="translate(782.640625 0)"/>
     <use xlink:href="#DejaVuSansMono-38" transform="translate(842.84375 0)"/>
     <use xlink:href="#DejaVuSansMono-37" transform="translate(903.046875 0)"/>
     <use xlink:href="#DejaVuSansMono-32" transform="translate(963.25 0)"/>
    </g>
   </g>
   <g id="patch_3">
    <path d="M 18.14875 174.540145 
L 18.14875 20.037891 
" style="fill: none; stroke: #000000; stroke-width: 0.8; stroke-linejoin: miter; stroke-linecap: square"/>
   </g>
   <g id="patch_4">
    <path d="M 18.14875 174.540145 
L 255.893895 174.540145 
" style="fill: none; stroke: #000000; stroke-width: 0.8; stroke-linejoin: miter; stroke-linecap: square"/>
   </g>
  </g>
  <g id="axes_2">
   <g id="patch_5">
    <path d="M 347.701384 174.540145 
L 424.952511 174.540145 
L 424.952511 20.037891 
L 347.701384 20.037891 
z
" style="fill: #ffffff"/>
   </g>
   <g id="matplotlib.axis_3">
    <g id="xtick_7">
     <g id="line2d_19">
      <g>
       <use xlink:href="#m6afb127b6e" x="347.701384" y="174.540145" style="stroke: #000000; stroke-width: 0.8"/>
      </g>
     </g>
     <g id="text_14">
      <!-- 0 -->
      <g transform="translate(345.477009 187.040145) scale(0.08 -0.08)">
       <use xlink:href="#Helvetica-13"/>
      </g>
     </g>
    </g>
    <g id="xtick_8">
     <g id="line2d_20">
      <g>
       <use xlink:href="#m6afb127b6e" x="378.601835" y="174.540145" style="stroke: #000000; stroke-width: 0.8"/>
      </g>
     </g>
     <g id="text_15">
      <!-- 1 -->
      <g transform="translate(376.37746 187.040145) scale(0.08 -0.08)">
       <use xlink:href="#Helvetica-14"/>
      </g>
     </g>
    </g>
    <g id="xtick_9">
     <g id="line2d_21">
      <g>
       <use xlink:href="#m6afb127b6e" x="409.502286" y="174.540145" style="stroke: #000000; stroke-width: 0.8"/>
      </g>
     </g>
     <g id="text_16">
      <!-- 2 -->
      <g transform="translate(407.277911 187.040145) scale(0.08 -0.08)">
       <use xlink:href="#Helvetica-15"/>
      </g>
     </g>
    </g>
   </g>
   <g id="matplotlib.axis_4">
    <g id="ytick_7">
     <g id="line2d_22">
      <path d="M 347.701384 174.540145 
L 424.952511 174.540145 
" clip-path="url(#pd9e0fdeffa)" style="fill: none; stroke: #eaeaea; stroke-opacity: 0.5; stroke-width: 0.5; stroke-linecap: square"/>
     </g>
     <g id="line2d_23">
      <g>
       <use xlink:href="#mcd42a1c581" x="347.701384" y="174.540145" style="stroke: #000000; stroke-width: 0.8"/>
      </g>
     </g>
     <g id="text_17">
      <!-- 0 -->
      <g transform="translate(336.752634 177.540145) scale(0.08 -0.08)">
       <use xlink:href="#Helvetica-13"/>
      </g>
     </g>
    </g>
    <g id="ytick_8">
     <g id="line2d_24">
      <path d="M 347.701384 143.639694 
L 424.952511 143.639694 
" clip-path="url(#pd9e0fdeffa)" style="fill: none; stroke: #eaeaea; stroke-opacity: 0.5; stroke-width: 0.5; stroke-linecap: square"/>
     </g>
     <g id="line2d_25">
      <g>
       <use xlink:href="#mcd42a1c581" x="347.701384" y="143.639694" style="stroke: #000000; stroke-width: 0.8"/>
      </g>
     </g>
     <g id="text_18">
      <!-- 1 -->
      <g transform="translate(336.752634 146.639694) scale(0.08 -0.08)">
       <use xlink:href="#Helvetica-14"/>
      </g>
     </g>
    </g>
    <g id="ytick_9">
     <g id="line2d_26">
      <path d="M 347.701384 112.739243 
L 424.952511 112.739243 
" clip-path="url(#pd9e0fdeffa)" style="fill: none; stroke: #eaeaea; stroke-opacity: 0.5; stroke-width: 0.5; stroke-linecap: square"/>
     </g>
     <g id="line2d_27">
      <g>
       <use xlink:href="#mcd42a1c581" x="347.701384" y="112.739243" style="stroke: #000000; stroke-width: 0.8"/>
      </g>
     </g>
     <g id="text_19">
      <!-- 2 -->
      <g transform="translate(336.752634 115.739243) scale(0.08 -0.08)">
       <use xlink:href="#Helvetica-15"/>
      </g>
     </g>
    </g>
    <g id="ytick_10">
     <g id="line2d_28">
      <path d="M 347.701384 81.838792 
L 424.952511 81.838792 
" clip-path="url(#pd9e0fdeffa)" style="fill: none; stroke: #eaeaea; stroke-opacity: 0.5; stroke-width: 0.5; stroke-linecap: square"/>
     </g>
     <g id="line2d_29">
      <g>
       <use xlink:href="#mcd42a1c581" x="347.701384" y="81.838792" style="stroke: #000000; stroke-width: 0.8"/>
      </g>
     </g>
     <g id="text_20">
      <!-- 3 -->
      <g transform="translate(336.752634 84.838792) scale(0.08 -0.08)">
       <use xlink:href="#Helvetica-16"/>
      </g>
     </g>
    </g>
    <g id="ytick_11">
     <g id="line2d_30">
      <path d="M 347.701384 50.938341 
L 424.952511 50.938341 
" clip-path="url(#pd9e0fdeffa)" style="fill: none; stroke: #eaeaea; stroke-opacity: 0.5; stroke-width: 0.5; stroke-linecap: square"/>
     </g>
     <g id="line2d_31">
      <g>
       <use xlink:href="#mcd42a1c581" x="347.701384" y="50.938341" style="stroke: #000000; stroke-width: 0.8"/>
      </g>
     </g>
     <g id="text_21">
      <!-- 4 -->
      <g transform="translate(336.752634 53.938341) scale(0.08 -0.08)">
       <use xlink:href="#Helvetica-17"/>
      </g>
     </g>
    </g>
    <g id="ytick_12">
     <g id="line2d_32">
      <path d="M 347.701384 20.037891 
L 424.952511 20.037891 
" clip-path="url(#pd9e0fdeffa)" style="fill: none; stroke: #eaeaea; stroke-opacity: 0.5; stroke-width: 0.5; stroke-linecap: square"/>
     </g>
     <g id="line2d_33">
      <g>
       <use xlink:href="#mcd42a1c581" x="347.701384" y="20.037891" style="stroke: #000000; stroke-width: 0.8"/>
      </g>
     </g>
     <g id="text_22">
      <!-- 5 -->
      <g transform="translate(336.752634 23.037891) scale(0.08 -0.08)">
       <use xlink:href="#Helvetica-18"/>
      </g>
     </g>
    </g>
   </g>
   <g id="PathCollection_2">
    <g clip-path="url(#pd9e0fdeffa)">
     <use xlink:href="#m2cfe7b14e1" x="386.332847" y="63.642901" style="fill: #3b76b0; fill-opacity: 0.75; stroke: #ffffff; stroke-opacity: 0.75; stroke-width: 0.5"/>
     <use xlink:href="#m2cfe7b14e1" x="395.639459" y="146.70413" style="fill: #3b76b0; fill-opacity: 0.75; stroke: #ffffff; stroke-opacity: 0.75; stroke-width: 0.5"/>
     <use xlink:href="#m2cfe7b14e1" x="366.251931" y="66.567364" style="fill: #3b76b0; fill-opacity: 0.75; stroke: #ffffff; stroke-opacity: 0.75; stroke-width: 0.5"/>
     <use xlink:href="#m2cfe7b14e1" x="348.026784" y="73.034831" style="fill: #3b76b0; fill-opacity: 0.75; stroke: #ffffff; stroke-opacity: 0.75; stroke-width: 0.5"/>
     <use xlink:href="#m2cfe7b14e1" x="396.960993" y="116.702541" style="fill: #3b76b0; fill-opacity: 0.75; stroke: #ffffff; stroke-opacity: 0.75; stroke-width: 0.5"/>
     <use xlink:href="#m2cfe7b14e1" x="366.429061" y="140.126237" style="fill: #3b76b0; fill-opacity: 0.75; stroke: #ffffff; stroke-opacity: 0.75; stroke-width: 0.5"/>
     <use xlink:href="#m2cfe7b14e1" x="363.452554" y="119.527911" style="fill: #3b76b0; fill-opacity: 0.75; stroke: #ffffff; stroke-opacity: 0.75; stroke-width: 0.5"/>
     <use xlink:href="#m2cfe7b14e1" x="378.882921" y="106.126874" style="fill: #3b76b0; fill-opacity: 0.75; stroke: #ffffff; stroke-opacity: 0.75; stroke-width: 0.5"/>
     <use xlink:href="#m2cfe7b14e1" x="409.224199" y="76.565702" style="fill: #3b76b0; fill-opacity: 0.75; stroke: #ffffff; stroke-opacity: 0.75; stroke-width: 0.5"/>
     <use xlink:href="#m2cfe7b14e1" x="386.152621" y="52.302887" style="fill: #3b76b0; fill-opacity: 0.75; stroke: #ffffff; stroke-opacity: 0.75; stroke-width: 0.5"/>
     <use xlink:href="#m2cfe7b14e1" x="361.007656" y="154.737649" style="fill: #3b76b0; fill-opacity: 0.75; stroke: #ffffff; stroke-opacity: 0.75; stroke-width: 0.5"/>
     <use xlink:href="#m2cfe7b14e1" x="385.556884" y="169.108834" style="fill: #3b76b0; fill-opacity: 0.75; stroke: #ffffff; stroke-opacity: 0.75; stroke-width: 0.5"/>
     <use xlink:href="#m2cfe7b14e1" x="349.906457" y="110.898958" style="fill: #3b76b0; fill-opacity: 0.75; stroke: #ffffff; stroke-opacity: 0.75; stroke-width: 0.5"/>
     <use xlink:href="#m2cfe7b14e1" x="376.513337" y="61.176554" style="fill: #3b76b0; fill-opacity: 0.75; stroke: #ffffff; stroke-opacity: 0.75; stroke-width: 0.5"/>
     <use xlink:href="#m2cfe7b14e1" x="386.588134" y="110.994277" style="fill: #3b76b0; fill-opacity: 0.75; stroke: #ffffff; stroke-opacity: 0.75; stroke-width: 0.5"/>
     <use xlink:href="#m2cfe7b14e1" x="378.40861" y="143.946854" style="fill: #3b76b0; fill-opacity: 0.75; stroke: #ffffff; stroke-opacity: 0.75; stroke-width: 0.5"/>
     <use xlink:href="#m2cfe7b14e1" x="348.430265" y="150.758893" style="fill: #3b76b0; fill-opacity: 0.75; stroke: #ffffff; stroke-opacity: 0.75; stroke-width: 0.5"/>
     <use xlink:href="#m2cfe7b14e1" x="390.469593" y="149.744792" style="fill: #3b76b0; fill-opacity: 0.75; stroke: #ffffff; stroke-opacity: 0.75; stroke-width: 0.5"/>
     <use xlink:href="#m2cfe7b14e1" x="370.539061" y="174.078586" style="fill: #3b76b0; fill-opacity: 0.75; stroke: #ffffff; stroke-opacity: 0.75; stroke-width: 0.5"/>
     <use xlink:href="#m2cfe7b14e1" x="398.999082" y="155.448477" style="fill: #3b76b0; fill-opacity: 0.75; stroke: #ffffff; stroke-opacity: 0.75; stroke-width: 0.5"/>
     <use xlink:href="#m2cfe7b14e1" x="364.239262" y="65.729503" style="fill: #3b76b0; fill-opacity: 0.75; stroke: #ffffff; stroke-opacity: 0.75; stroke-width: 0.5"/>
     <use xlink:href="#m2cfe7b14e1" x="379.206916" y="69.830847" style="fill: #3b76b0; fill-opacity: 0.75; stroke: #ffffff; stroke-opacity: 0.75; stroke-width: 0.5"/>
     <use xlink:href="#m2cfe7b14e1" x="387.236482" y="82.855918" style="fill: #3b76b0; fill-opacity: 0.75; stroke: #ffffff; stroke-opacity: 0.75; stroke-width: 0.5"/>
     <use xlink:href="#m2cfe7b14e1" x="353.355895" y="107.653793" style="fill: #3b76b0; fill-opacity: 0.75; stroke: #ffffff; stroke-opacity: 0.75; stroke-width: 0.5"/>
     <use xlink:href="#m2cfe7b14e1" x="379.082166" y="66.841027" style="fill: #3b76b0; fill-opacity: 0.75; stroke: #ffffff; stroke-opacity: 0.75; stroke-width: 0.5"/>
     <use xlink:href="#m2cfe7b14e1" x="370.027829" y="100.603515" style="fill: #3b76b0; fill-opacity: 0.75; stroke: #ffffff; stroke-opacity: 0.75; stroke-width: 0.5"/>
     <use xlink:href="#m2cfe7b14e1" x="351.363189" y="126.628155" style="fill: #3b76b0; fill-opacity: 0.75; stroke: #ffffff; stroke-opacity: 0.75; stroke-width: 0.5"/>
     <use xlink:href="#m2cfe7b14e1" x="367.665321" y="155.975188" style="fill: #3b76b0; fill-opacity: 0.75; stroke: #ffffff; stroke-opacity: 0.75; stroke-width: 0.5"/>
     <use xlink:href="#m2cfe7b14e1" x="398.151815" y="127.639914" style="fill: #3b76b0; fill-opacity: 0.75; stroke: #ffffff; stroke-opacity: 0.75; stroke-width: 0.5"/>
     <use xlink:href="#m2cfe7b14e1" x="408.188886" y="101.616108" style="fill: #3b76b0; fill-opacity: 0.75; stroke: #ffffff; stroke-opacity: 0.75; stroke-width: 0.5"/>
     <use xlink:href="#m2cfe7b14e1" x="385.094406" y="95.682617" style="fill: #3b76b0; fill-opacity: 0.75; stroke: #ffffff; stroke-opacity: 0.75; stroke-width: 0.5"/>
     <use xlink:href="#m2cfe7b14e1" x="389.506619" y="155.902474" style="fill: #3b76b0; fill-opacity: 0.75; stroke: #ffffff; stroke-opacity: 0.75; stroke-width: 0.5"/>
     <use xlink:href="#m2cfe7b14e1" x="374.913153" y="144.929607" style="fill: #3b76b0; fill-opacity: 0.75; stroke: #ffffff; stroke-opacity: 0.75; stroke-width: 0.5"/>
     <use xlink:href="#m2cfe7b14e1" x="372.576142" y="162.587345" style="fill: #3b76b0; fill-opacity: 0.75; stroke: #ffffff; stroke-opacity: 0.75; stroke-width: 0.5"/>
     <use xlink:href="#m2cfe7b14e1" x="407.51403" y="147.965258" style="fill: #3b76b0; fill-opacity: 0.75; stroke: #ffffff; stroke-opacity: 0.75; stroke-width: 0.5"/>
     <use xlink:href="#m2cfe7b14e1" x="389.217077" y="137.407681" style="fill: #3b76b0; fill-opacity: 0.75; stroke: #ffffff; stroke-opacity: 0.75; stroke-width: 0.5"/>
     <use xlink:href="#m2cfe7b14e1" x="401.720132" y="92.689209" style="fill: #3b76b0; fill-opacity: 0.75; stroke: #ffffff; stroke-opacity: 0.75; stroke-width: 0.5"/>
     <use xlink:href="#m2cfe7b14e1" x="355.83536" y="70.087435" style="fill: #3b76b0; fill-opacity: 0.75; stroke: #ffffff; stroke-opacity: 0.75; stroke-width: 0.5"/>
     <use xlink:href="#m2cfe7b14e1" x="406.100033" y="62.8144" style="fill: #3b76b0; fill-opacity: 0.75; stroke: #ffffff; stroke-opacity: 0.75; stroke-width: 0.5"/>
     <use xlink:href="#m2cfe7b14e1" x="382.910541" y="156.561032" style="fill: #3b76b0; fill-opacity: 0.75; stroke: #ffffff; stroke-opacity: 0.75; stroke-width: 0.5"/>
    </g>
   </g>
   <g id="text_23">
    <!-- ASPECT_RATIO.EQUAL -->
    <g transform="translate(337.562416 14.037891) scale(0.09 -0.09)">
     <defs>
      <path id="DejaVuSansMono-34" d="M 2047 -84 
Q 2025 -84 1984 -87 
Q 1944 -91 1919 -91 
Q 1138 -91 752 509 
Q 366 1109 366 2328 
Q 366 3550 752 4150 
Q 1138 4750 1925 4750 
Q 2716 4750 3102 4150 
Q 3488 3550 3488 2328 
Q 3488 1409 3273 848 
Q 3059 288 2625 63 
L 3250 -531 
L 2778 -844 
L 2047 -84 
z
M 2828 2328 
Q 2828 3356 2617 3797 
Q 2406 4238 1925 4238 
Q 1447 4238 1236 3797 
Q 1025 3356 1025 2328 
Q 1025 1303 1236 862 
Q 1447 422 1925 422 
Q 2406 422 2617 861 
Q 2828 1300 2828 2328 
z
" transform="scale(0.015625)"/>
      <path id="DejaVuSansMono-2f" d="M 672 4666 
L 1306 4666 
L 1306 531 
L 3559 531 
L 3559 0 
L 672 0 
L 672 4666 
z
" transform="scale(0.015625)"/>
     </defs>
     <use xlink:href="#DejaVuSansMono-24"/>
     <use xlink:href="#DejaVuSansMono-36" transform="translate(60.203125 0)"/>
     <use xlink:href="#DejaVuSansMono-33" transform="translate(120.40625 0)"/>
     <use xlink:href="#DejaVuSansMono-28" transform="translate(180.609375 0)"/>
     <use xlink:href="#DejaVuSansMono-26" transform="translate(240.8125 0)"/>
     <use xlink:href="#DejaVuSansMono-37" transform="translate(301.015625 0)"/>
     <use xlink:href="#DejaVuSansMono-42" transform="translate(361.21875 0)"/>
     <use xlink:href="#DejaVuSansMono-35" transform="translate(421.421875 0)"/>
     <use xlink:href="#DejaVuSansMono-24" transform="translate(481.625 0)"/>
     <use xlink:href="#DejaVuSansMono-37" transform="translate(541.828125 0)"/>
     <use xlink:href="#DejaVuSansMono-2c" transform="translate(602.03125 0)"/>
     <use xlink:href="#DejaVuSansMono-32" transform="translate(662.234375 0)"/>
     <use xlink:href="#DejaVuSansMono-11" transform="translate(722.4375 0)"/>
     <use xlink:href="#DejaVuSansMono-28" transform="translate(782.640625 0)"/>
     <use xlink:href="#DejaVuSansMono-34" transform="translate(842.84375 0)"/>
     <use xlink:href="#DejaVuSansMono-38" transform="translate(903.046875 0)"/>
     <use xlink:href="#DejaVuSansMono-24" transform="translate(963.25 0)"/>
     <use xlink:href="#DejaVuSansMono-2f" transform="translate(1023.453125 0)"/>
    </g>
   </g>
   <g id="patch_6">
    <path d="M 347.701384 174.540145 
L 347.701384 20.037891 
" style="fill: none; stroke: #000000; stroke-width: 0.8; stroke-linejoin: miter; stroke-linecap: square"/>
   </g>
   <g id="patch_7">
    <path d="M 347.701384 174.540145 
L 424.952511 174.540145 
" style="fill: none; stroke: #000000; stroke-width: 0.8; stroke-linejoin: miter; stroke-linecap: square"/>
   </g>
  </g>
  <g id="text_24">
   <!-- The y range is twice the x range; AUTO stretches the data -->
   <g transform="translate(98.787771 214.549262) scale(0.085 -0.085)">
    <defs>
     <path id="DejaVuSans-Oblique-37" d="M 378 4666 
L 4325 4666 
L 4225 4134 
L 2559 4134 
L 1759 0 
L 1125 0 
L 1925 4134 
L 275 4134 
L 378 4666 
z
" transform="scale(0.015625)"/>
     <path id="DejaVuSans-Oblique-4b" d="M 3566 2113 
L 3156 0 
L 2578 0 
L 2988 2091 
Q 3016 2238 3031 2350 
Q 3047 2463 3047 2528 
Q 3047 2791 2881 2937 
Q 2716 3084 2419 3084 
Q 1956 3084 1617 2771 
Q 1278 2459 1178 1941 
L 800 0 
L 225 0 
L 1172 4863 
L 1747 4863 
L 1375 2950 
Q 1594 3244 1934 3414 
Q 2275 3584 2650 3584 
Q 3113 3584 3367 3334 
Q 3622 3084 3622 2631 
Q 3622 2519 3608 2391 
Q 3594 2263 3566 2113 
z
" transform="scale(0.015625)"/>
     <path id="DejaVuSans-Oblique-48" d="M 3078 2063 
Q 3088 2113 3092 2166 
Q 3097 2219 3097 2272 
Q 3097 2653 2873 2875 
Q 2650 3097 2266 3097 
Q 1838 3097 1509 2826 
Q 1181 2556 1013 2059 
L 3078 2063 
z
M 3578 1613 
L 903 1613 
Q 884 1494 878 1425 
Q 872 1356 872 1306 
Q 872 872 1139 634 
Q 1406 397 1894 397 
Q 2269 397 2603 481 
Q 2938 566 3225 728 
L 3116 159 
Q 2806 34 2476 -28 
Q 2147 -91 1806 -91 
Q 1078 -91 686 257 
Q 294 606 294 1247 
Q 294 1794 489 2264 
Q 684 2734 1063 3103 
Q 1306 3334 1642 3459 
Q 1978 3584 2356 3584 
Q 2950 3584 3301 3228 
Q 3653 2872 3653 2272 
Q 3653 2128 3634 1964 
Q 3616 1800 3578 1613 
z
" transform="scale(0.015625)"/>
     <path id="DejaVuSans-Oblique-3" transform="scale(0.015625)"/>
     <path id="DejaVuSans-Oblique-5c" d="M 1588 -325 
Q 1188 -997 936 -1164 
Q 684 -1331 294 -1331 
L -159 -1331 
L -63 -850 
L 269 -850 
Q 509 -850 678 -719 
Q 847 -588 1056 -206 
L 1234 128 
L 459 3500 
L 1069 3500 
L 1650 819 
L 3256 3500 
L 3859 3500 
L 1588 -325 
z
" transform="scale(0.015625)"/>
     <path id="DejaVuSans-Oblique-55" d="M 2853 2969 
Q 2766 3016 2653 3041 
Q 2541 3066 2413 3066 
Q 1953 3066 1609 2717 
Q 1266 2369 1153 1784 
L 800 0 
L 225 0 
L 909 3500 
L 1484 3500 
L 1375 2956 
Q 1603 3259 1920 3421 
Q 2238 3584 2597 3584 
Q 2691 3584 2781 3573 
Q 2872 3563 2963 3538 
L 2853 2969 
z
" transform="scale(0.015625)"/>
     <path id="DejaVuSans-Oblique-44" d="M 3438 1997 
L 3047 0 
L 2472 0 
L 2578 531 
Q 2325 219 2001 64 
Q 1678 -91 1281 -91 
Q 834 -91 548 182 
Q 263 456 263 884 
Q 263 1497 752 1853 
Q 1241 2209 2100 2209 
L 2900 2209 
L 2931 2363 
Q 2938 2388 2941 2417 
Q 2944 2447 2944 2509 
Q 2944 2788 2717 2942 
Q 2491 3097 2081 3097 
Q 1800 3097 1504 3025 
Q 1209 2953 897 2809 
L 997 3341 
Q 1322 3463 1633 3523 
Q 1944 3584 2234 3584 
Q 2853 3584 3176 3315 
Q 3500 3047 3500 2534 
Q 3500 2431 3484 2292 
Q 3469 2153 3438 1997 
z
M 2816 1759 
L 2241 1759 
Q 1534 1759 1195 1570 
Q 856 1381 856 984 
Q 856 709 1029 553 
Q 1203 397 1509 397 
Q 1978 397 2328 733 
Q 2678 1069 2791 1631 
L 2816 1759 
z
" transform="scale(0.015625)"/>
     <path id="DejaVuSans-Oblique-51" d="M 3566 2113 
L 3156 0 
L 2578 0 
L 2988 2091 
Q 3016 2238 3031 2350 
Q 3047 2463 3047 2528 
Q 3047 2791 2881 2937 
Q 2716 3084 2419 3084 
Q 1956 3084 1622 2776 
Q 1288 2469 1184 1941 
L 800 0 
L 225 0 
L 903 3500 
L 1478 3500 
L 1363 2950 
Q 1603 3253 1940 3418 
Q 2278 3584 2650 3584 
Q 3113 3584 3367 3334 
Q 3622 3084 3622 2631 
Q 3622 2519 3608 2391 
Q 3594 2263 3566 2113 
z
" transform="scale(0.015625)"/>
     <path id="DejaVuSans-Oblique-4a" d="M 3816 3500 
L 3219 434 
Q 3047 -456 2561 -893 
Q 2075 -1331 1253 -1331 
Q 950 -1331 690 -1286 
Q 431 -1241 206 -1147 
L 313 -588 
Q 525 -725 762 -790 
Q 1000 -856 1269 -856 
Q 1816 -856 2167 -557 
Q 2519 -259 2631 300 
L 2681 563 
Q 2441 288 2122 144 
Q 1803 0 1434 0 
Q 903 0 598 351 
Q 294 703 294 1319 
Q 294 1803 478 2267 
Q 663 2731 997 3091 
Q 1219 3328 1514 3456 
Q 1809 3584 2131 3584 
Q 2484 3584 2746 3420 
Q 3009 3256 3138 2956 
L 3238 3500 
L 3816 3500 
z
M 2950 2216 
Q 2950 2641 2750 2872 
Q 2550 3103 2181 3103 
Q 1953 3103 1747 3012 
Q 1541 2922 1394 2759 
Q 1156 2491 1023 2127 
Q 891 1763 891 1375 
Q 891 944 1092 712 
Q 1294 481 1672 481 
Q 2219 481 2584 976 
Q 2950 1472 2950 2216 
z
" transform="scale(0.015625)"/>
     <path id="DejaVuSans-Oblique-4c" d="M 1172 4863 
L 1747 4863 
L 1606 4134 
L 1031 4134 
L 1172 4863 
z
M 909 3500 
L 1484 3500 
L 800 0 
L 225 0 
L 909 3500 
z
" transform="scale(0.015625)"/>
     <path id="DejaVuSans-Oblique-56" d="M 3200 3397 
L 3091 2853 
Q 2863 2978 2609 3040 
Q 2356 3103 2088 3103 
Q 1634 3103 1373 2948 
Q 1113 2794 1113 2528 
Q 1113 2219 1719 2053 
Q 1766 2041 1788 2034 
L 1972 1978 
Q 2547 1819 2739 1644 
Q 2931 1469 2931 1166 
Q 2931 609 2489 259 
Q 2047 -91 1331 -91 
Q 1053 -91 747 -37 
Q 441 16 72 128 
L 184 722 
Q 500 559 806 475 
Q 1113 391 1394 391 
Q 1816 391 2080 572 
Q 2344 753 2344 1031 
Q 2344 1331 1650 1516 
L 1591 1531 
L 1394 1581 
Q 956 1697 753 1886 
Q 550 2075 550 2369 
Q 550 2928 970 3256 
Q 1391 3584 2113 3584 
Q 2397 3584 2667 3537 
Q 2938 3491 3200 3397 
z
" transform="scale(0.015625)"/>
     <path id="DejaVuSans-Oblique-57" d="M 2706 3500 
L 2619 3053 
L 1472 3053 
L 1100 1153 
Q 1081 1047 1072 975 
Q 1063 903 1063 863 
Q 1063 663 1183 572 
Q 1303 481 1569 481 
L 2150 481 
L 2053 0 
L 1503 0 
Q 991 0 739 200 
Q 488 400 488 806 
Q 488 878 497 964 
Q 506 1050 525 1153 
L 897 3053 
L 409 3053 
L 500 3500 
L 978 3500 
L 1172 4494 
L 1747 4494 
L 1556 3500 
L 2706 3500 
z
" transform="scale(0.015625)"/>
     <path id="DejaVuSans-Oblique-5a" d="M 544 3500 
L 1113 3500 
L 1259 684 
L 2566 3500 
L 3231 3500 
L 3425 684 
L 4666 3500 
L 5241 3500 
L 3641 0 
L 2969 0 
L 2797 2900 
L 1459 0 
L 781 0 
L 544 3500 
z
" transform="scale(0.015625)"/>
     <path id="DejaVuSans-Oblique-46" d="M 3431 3366 
L 3316 2797 
Q 3109 2947 2876 3022 
Q 2644 3097 2394 3097 
Q 2119 3097 1870 3000 
Q 1622 2903 1453 2725 
Q 1184 2453 1037 2087 
Q 891 1722 891 1331 
Q 891 859 1127 628 
Q 1363 397 1844 397 
Q 2081 397 2348 469 
Q 2616 541 2906 684 
L 2797 116 
Q 2547 13 2283 -39 
Q 2019 -91 1741 -91 
Q 1044 -91 669 257 
Q 294 606 294 1253 
Q 294 1797 489 2255 
Q 684 2713 1069 3078 
Q 1331 3328 1684 3456 
Q 2038 3584 2456 3584 
Q 2700 3584 2940 3529 
Q 3181 3475 3431 3366 
z
" transform="scale(0.015625)"/>
     <path id="DejaVuSans-Oblique-5b" d="M 3841 3500 
L 2234 1784 
L 3219 0 
L 2559 0 
L 1819 1388 
L 531 0 
L -166 0 
L 1556 1844 
L 641 3500 
L 1300 3500 
L 1972 2234 
L 3144 3500 
L 3841 3500 
z
" transform="scale(0.015625)"/>
     <path id="DejaVuSans-Oblique-1e" d="M 563 794 
L 1222 794 
L 1113 256 
L 409 -744 
L 6 -744 
L 453 256 
L 563 794 
z
M 1050 3309 
L 1709 3309 
L 1556 2516 
L 897 2516 
L 1050 3309 
z
" transform="scale(0.015625)"/>
     <path id="DejaVuSans-Oblique-24" d="M 2356 4666 
L 3072 4666 
L 3938 0 
L 3278 0 
L 3084 1197 
L 984 1197 
L 325 0 
L -341 0 
L 2356 4666 
z
M 2584 4044 
L 1275 1722 
L 2988 1722 
L 2584 4044 
z
" transform="scale(0.015625)"/>
     <path id="DejaVuSans-Oblique-38" d="M 991 4666 
L 1625 4666 
L 1075 1831 
Q 1041 1641 1027 1517 
Q 1013 1394 1013 1300 
Q 1013 869 1253 645 
Q 1494 422 1959 422 
Q 2563 422 2898 753 
Q 3234 1084 3378 1831 
L 3928 4666 
L 4563 4666 
L 4000 1753 
Q 3816 809 3300 359 
Q 2784 -91 1888 -91 
Q 1188 -91 780 261 
Q 372 613 372 1216 
Q 372 1325 387 1461 
Q 403 1597 434 1753 
L 991 4666 
z
" transform="scale(0.015625)"/>
     <path id="DejaVuSans-Oblique-32" d="M 2919 4238 
Q 2400 4238 2003 3986 
Q 1606 3734 1313 3219 
Q 1125 2891 1026 2522 
Q 928 2153 928 1778 
Q 928 1128 1239 775 
Q 1550 422 2119 422 
Q 2631 422 3032 676 
Q 3434 931 3719 1434 
Q 3909 1772 4009 2142 
Q 4109 2513 4109 2881 
Q 4109 3528 3796 3883 
Q 3484 4238 2919 4238 
z
M 2100 -91 
Q 1241 -91 748 418 
Q 256 928 256 1813 
Q 256 2319 448 2847 
Q 641 3375 978 3788 
Q 1375 4272 1862 4511 
Q 2350 4750 2938 4750 
Q 3794 4750 4287 4245 
Q 4781 3741 4781 2869 
Q 4781 2331 4593 1812 
Q 4406 1294 4056 872 
Q 3656 384 3173 146 
Q 2691 -91 2100 -91 
z
" transform="scale(0.015625)"/>
     <path id="DejaVuSans-Oblique-47" d="M 2675 525 
Q 2444 222 2128 65 
Q 1813 -91 1428 -91 
Q 903 -91 598 267 
Q 294 625 294 1247 
Q 294 1766 478 2236 
Q 663 2706 1013 3078 
Q 1244 3325 1534 3454 
Q 1825 3584 2144 3584 
Q 2481 3584 2739 3421 
Q 2997 3259 3138 2956 
L 3513 4863 
L 4091 4863 
L 3144 0 
L 2566 0 
L 2675 525 
z
M 891 1350 
Q 891 897 1095 644 
Q 1300 391 1663 391 
Q 1931 391 2161 520 
Q 2391 650 2566 903 
Q 2750 1166 2856 1509 
Q 2963 1853 2963 2188 
Q 2963 2622 2758 2865 
Q 2553 3109 2194 3109 
Q 1922 3109 1687 2981 
Q 1453 2853 1288 2613 
Q 1106 2353 998 2009 
Q 891 1666 891 1350 
z
" transform="scale(0.015625)"/>
    </defs>
    <use xlink:href="#DejaVuSans-Oblique-37"/>
    <use xlink:href="#DejaVuSans-Oblique-4b" transform="translate(61.078125 0)"/>
    <use xlink:href="#DejaVuSans-Oblique-48" transform="translate(124.453125 0)"/>
    <use xlink:href="#DejaVuSans-Oblique-3" transform="translate(185.984375 0)"/>
    <use xlink:href="#DejaVuSans-Oblique-5c" transform="translate(217.765625 0)"/>
    <use xlink:href="#DejaVuSans-Oblique-3" transform="translate(276.953125 0)"/>
    <use xlink:href="#DejaVuSans-Oblique-55" transform="translate(308.734375 0)"/>
    <use xlink:href="#DejaVuSans-Oblique-44" transform="translate(349.84375 0)"/>
    <use xlink:href="#DejaVuSans-Oblique-51" transform="translate(411.125 0)"/>
    <use xlink:href="#DejaVuSans-Oblique-4a" transform="translate(474.5 0)"/>
    <use xlink:href="#DejaVuSans-Oblique-48" transform="translate(537.984375 0)"/>
    <use xlink:href="#DejaVuSans-Oblique-3" transform="translate(599.515625 0)"/>
    <use xlink:href="#DejaVuSans-Oblique-4c" transform="translate(631.296875 0)"/>
    <use xlink:href="#DejaVuSans-Oblique-56" transform="translate(659.078125 0)"/>
    <use xlink:href="#DejaVuSans-Oblique-3" transform="translate(711.171875 0)"/>
    <use xlink:href="#DejaVuSans-Oblique-57" transform="translate(742.953125 0)"/>
    <use xlink:href="#DejaVuSans-Oblique-5a" transform="translate(782.15625 0)"/>
    <use xlink:href="#DejaVuSans-Oblique-4c" transform="translate(863.9375 0)"/>
    <use xlink:href="#DejaVuSans-Oblique-46" transform="translate(891.71875 0)"/>
    <use xlink:href="#DejaVuSans-Oblique-48" transform="translate(946.703125 0)"/>
    <use xlink:href="#DejaVuSans-Oblique-3" transform="translate(1008.234375 0)"/>
    <use xlink:href="#DejaVuSans-Oblique-57" transform="translate(1040.015625 0)"/>
    <use xlink:href="#DejaVuSans-Oblique-4b" transform="translate(1079.21875 0)"/>
    <use xlink:href="#DejaVuSans-Oblique-48" transform="translate(1142.59375 0)"/>
    <use xlink:href="#DejaVuSans-Oblique-3" transform="translate(1204.125 0)"/>
    <use xlink:href="#DejaVuSans-Oblique-5b" transform="translate(1235.90625 0)"/>
    <use xlink:href="#DejaVuSans-Oblique-3" transform="translate(1295.09375 0)"/>
    <use xlink:href="#DejaVuSans-Oblique-55" transform="translate(1326.875 0)"/>
    <use xlink:href="#DejaVuSans-Oblique-44" transform="translate(1367.984375 0)"/>
    <use xlink:href="#DejaVuSans-Oblique-51" transform="translate(1429.265625 0)"/>
    <use xlink:href="#DejaVuSans-Oblique-4a" transform="translate(1492.640625 0)"/>
    <use xlink:href="#DejaVuSans-Oblique-48" transform="translate(1556.125 0)"/>
    <use xlink:href="#DejaVuSans-Oblique-1e" transform="translate(1617.65625 0)"/>
    <use xlink:href="#DejaVuSans-Oblique-3" transform="translate(1651.34375 0)"/>
    <use xlink:href="#DejaVuSans-Oblique-24" transform="translate(1683.125 0)"/>
    <use xlink:href="#DejaVuSans-Oblique-38" transform="translate(1751.53125 0)"/>
    <use xlink:href="#DejaVuSans-Oblique-37" transform="translate(1824.71875 0)"/>
    <use xlink:href="#DejaVuSans-Oblique-32" transform="translate(1885.796875 0)"/>
    <use xlink:href="#DejaVuSans-Oblique-3" transform="translate(1964.515625 0)"/>
    <use xlink:href="#DejaVuSans-Oblique-56" transform="translate(1996.296875 0)"/>
    <use xlink:href="#DejaVuSans-Oblique-57" transform="translate(2048.390625 0)"/>
    <use xlink:href="#DejaVuSans-Oblique-55" transform="translate(2087.59375 0)"/>
    <use xlink:href="#DejaVuSans-Oblique-48" transform="translate(2128.703125 0)"/>
    <use xlink:href="#DejaVuSans-Oblique-57" transform="translate(2190.234375 0)"/>
    <use xlink:href="#DejaVuSans-Oblique-46" transform="translate(2229.4375 0)"/>
    <use xlink:href="#DejaVuSans-Oblique-4b" transform="translate(2284.421875 0)"/>
    <use xlink:href="#DejaVuSans-Oblique-48" transform="translate(2347.796875 0)"/>
    <use xlink:href="#DejaVuSans-Oblique-56" transform="translate(2409.328125 0)"/>
    <use xlink:href="#DejaVuSans-Oblique-3" transform="translate(2461.421875 0)"/>
    <use xlink:href="#DejaVuSans-Oblique-57" transform="translate(2493.203125 0)"/>
    <use xlink:href="#DejaVuSans-Oblique-4b" transform="translate(2532.40625 0)"/>
    <use xlink:href="#DejaVuSans-Oblique-48" transform="translate(2595.78125 0)"/>
    <use xlink:href="#DejaVuSans-Oblique-3" transform="translate(2657.3125 0)"/>
    <use xlink:href="#DejaVuSans-Oblique-47" transform="translate(2689.09375 0)"/>
    <use xlink:href="#DejaVuSans-Oblique-44" transform="translate(2752.578125 0)"/>
    <use xlink:href="#DejaVuSans-Oblique-57" transform="translate(2813.859375 0)"/>
    <use xlink:href="#DejaVuSans-Oblique-44" transform="translate(2853.0625 0)"/>
   </g>
   <!-- to fill the box, EQUAL keeps one unit equal on both axes. -->
   <g transform="translate(101.070818 224.751586) scale(0.085 -0.085)">
    <defs>
     <path id="DejaVuSans-Oblique-52" d="M 1625 -91 
Q 1009 -91 651 289 
Q 294 669 294 1325 
Q 294 1706 417 2101 
Q 541 2497 738 2766 
Q 1047 3184 1428 3384 
Q 1809 3584 2291 3584 
Q 2888 3584 3255 3212 
Q 3622 2841 3622 2241 
Q 3622 1825 3500 1412 
Q 3378 1000 3181 728 
Q 2875 309 2494 109 
Q 2113 -91 1625 -91 
z
M 891 1344 
Q 891 869 1089 633 
Q 1288 397 1691 397 
Q 2269 397 2648 901 
Q 3028 1406 3028 2181 
Q 3028 2634 2825 2865 
Q 2622 3097 2228 3097 
Q 1903 3097 1650 2945 
Q 1397 2794 1197 2484 
Q 1050 2253 970 1956 
Q 891 1659 891 1344 
z
" transform="scale(0.015625)"/>
     <path id="DejaVuSans-Oblique-127c" d="M 3525 4863 
L 4103 4863 
L 3963 4134 
L 3384 4134 
L 3525 4863 
z
M 3059 4863 
L 2969 4384 
L 2419 4384 
Q 2106 4384 1964 4261 
Q 1822 4138 1753 3809 
L 1691 3500 
L 3841 3500 
L 3156 0 
L 2578 0 
L 3188 3056 
L 1606 3056 
L 1013 0 
L 434 0 
L 1031 3053 
L 481 3053 
L 563 3500 
L 1113 3500 
L 1159 3744 
Q 1278 4363 1575 4613 
Q 1875 4863 2516 4863 
L 3059 4863 
z
" transform="scale(0.015625)"/>
     <path id="DejaVuSans-Oblique-4f" d="M 1172 4863 
L 1747 4863 
L 800 0 
L 225 0 
L 1172 4863 
z
" transform="scale(0.015625)"/>
     <path id="DejaVuSans-Oblique-45" d="M 3169 2138 
Q 3169 2591 2961 2847 
Q 2753 3103 2388 3103 
Q 2122 3103 1889 2973 
Q 1656 2844 1484 2597 
Q 1303 2338 1198 1995 
Q 1094 1653 1094 1313 
Q 1094 881 1298 636 
Q 1503 391 1863 391 
Q 2134 391 2365 517 
Q 2597 644 2772 891 
Q 2950 1147 3059 1487 
Q 3169 1828 3169 2138 
z
M 1381 2969 
Q 1594 3256 1914 3420 
Q 2234 3584 2584 3584 
Q 3122 3584 3439 3221 
Q 3756 2859 3756 2241 
Q 3756 1734 3570 1259 
Q 3384 784 3041 416 
Q 2816 172 2522 40 
Q 2228 -91 1906 -91 
Q 1566 -91 1316 65 
Q 1066 222 909 531 
L 806 0 
L 231 0 
L 1178 4863 
L 1753 4863 
L 1381 2969 
z
" transform="scale(0.015625)"/>
     <path id="DejaVuSans-Oblique-f" d="M 575 794 
L 1234 794 
L 1131 256 
L 422 -744 
L 19 -744 
L 469 256 
L 575 794 
z
" transform="scale(0.015625)"/>
     <path id="DejaVuSans-Oblique-28" d="M 1081 4666 
L 4031 4666 
L 3928 4134 
L 1606 4134 
L 1338 2753 
L 3566 2753 
L 3463 2222 
L 1234 2222 
L 909 531 
L 3284 531 
L 3181 0 
L 172 0 
L 1081 4666 
z
" transform="scale(0.015625)"/>
     <path id="DejaVuSans-Oblique-34" d="M 2309 -84 
Q 2275 -88 2237 -89 
Q 2200 -91 2125 -91 
Q 1250 -91 756 411 
Q 263 913 263 1797 
Q 263 2319 452 2844 
Q 641 3369 978 3788 
Q 1369 4269 1858 4509 
Q 2347 4750 2938 4750 
Q 3794 4750 4287 4245 
Q 4781 3741 4781 2869 
Q 4781 1928 4265 1147 
Q 3750 366 2919 44 
L 3553 -825 
L 2847 -825 
L 2309 -84 
z
M 2919 4238 
Q 2400 4238 2003 3986 
Q 1606 3734 1313 3219 
Q 1125 2891 1026 2522 
Q 928 2153 928 1778 
Q 928 1128 1239 775 
Q 1550 422 2119 422 
Q 2631 422 3032 676 
Q 3434 931 3719 1434 
Q 3909 1772 4009 2142 
Q 4109 2513 4109 2881 
Q 4109 3528 3796 3883 
Q 3484 4238 2919 4238 
z
" transform="scale(0.015625)"/>
     <path id="DejaVuSans-Oblique-2f" d="M 1075 4666 
L 1709 4666 
L 909 525 
L 3181 525 
L 3078 0 
L 172 0 
L 1075 4666 
z
" transform="scale(0.015625)"/>
     <path id="DejaVuSans-Oblique-4e" d="M 1172 4863 
L 1747 4863 
L 1197 2028 
L 3169 3500 
L 3916 3500 
L 1716 1825 
L 3322 0 
L 2625 0 
L 1131 1709 
L 800 0 
L 225 0 
L 1172 4863 
z
" transform="scale(0.015625)"/>
     <path id="DejaVuSans-Oblique-53" d="M 3175 2156 
Q 3175 2616 2975 2859 
Q 2775 3103 2400 3103 
Q 2144 3103 1911 2972 
Q 1678 2841 1497 2591 
Q 1319 2344 1212 1994 
Q 1106 1644 1106 1300 
Q 1106 863 1306 627 
Q 1506 391 1875 391 
Q 2147 391 2380 519 
Q 2613 647 2778 891 
Q 2956 1147 3065 1494 
Q 3175 1841 3175 2156 
z
M 1394 2969 
Q 1625 3272 1939 3428 
Q 2253 3584 2638 3584 
Q 3175 3584 3472 3232 
Q 3769 2881 3769 2247 
Q 3769 1728 3584 1258 
Q 3400 788 3053 416 
Q 2822 169 2531 39 
Q 2241 -91 1919 -91 
Q 1547 -91 1294 64 
Q 1041 219 916 525 
L 556 -1331 
L -19 -1331 
L 922 3500 
L 1497 3500 
L 1394 2969 
z
" transform="scale(0.015625)"/>
     <path id="DejaVuSans-Oblique-58" d="M 428 1388 
L 838 3500 
L 1416 3500 
L 1006 1409 
Q 975 1256 961 1147 
Q 947 1038 947 966 
Q 947 700 1109 554 
Q 1272 409 1569 409 
Q 2031 409 2368 721 
Q 2706 1034 2809 1563 
L 3194 3500 
L 3769 3500 
L 3091 0 
L 2516 0 
L 2631 550 
Q 2388 244 2052 76 
Q 1716 -91 1338 -91 
Q 878 -91 622 161 
Q 366 413 366 863 
Q 366 956 381 1097 
Q 397 1238 428 1388 
z
" transform="scale(0.015625)"/>
     <path id="DejaVuSans-Oblique-54" d="M 2669 525 
Q 2438 222 2123 65 
Q 1809 -91 1428 -91 
Q 897 -91 595 267 
Q 294 625 294 1253 
Q 294 1759 480 2231 
Q 666 2703 1013 3078 
Q 1238 3322 1530 3453 
Q 1822 3584 2144 3584 
Q 2531 3584 2781 3431 
Q 3031 3278 3144 2969 
L 3244 3494 
L 3822 3494 
L 2888 -1319 
L 2309 -1319 
L 2669 525 
z
M 891 1338 
Q 891 875 1084 633 
Q 1278 391 1644 391 
Q 2188 391 2572 911 
Q 2956 1431 2956 2175 
Q 2956 2625 2757 2864 
Q 2559 3103 2188 3103 
Q 1916 3103 1684 2976 
Q 1453 2850 1281 2606 
Q 1100 2350 995 2006 
Q 891 1663 891 1338 
z
" transform="scale(0.015625)"/>
     <path id="DejaVuSans-Oblique-11" d="M 525 794 
L 1184 794 
L 1031 0 
L 372 0 
L 525 794 
z
" transform="scale(0.015625)"/>
    </defs>
    <use xlink:href="#DejaVuSans-Oblique-57"/>
    <use xlink:href="#DejaVuSans-Oblique-52" transform="translate(39.203125 0)"/>
    <use xlink:href="#DejaVuSans-Oblique-3" transform="translate(100.390625 0)"/>
    <use xlink:href="#DejaVuSans-Oblique-127c" transform="translate(132.171875 0)"/>
    <use xlink:href="#DejaVuSans-Oblique-4f" transform="translate(196.765625 0)"/>
    <use xlink:href="#DejaVuSans-Oblique-4f" transform="translate(224.546875 0)"/>
    <use xlink:href="#DejaVuSans-Oblique-3" transform="translate(252.328125 0)"/>
    <use xlink:href="#DejaVuSans-Oblique-57" transform="translate(284.109375 0)"/>
    <use xlink:href="#DejaVuSans-Oblique-4b" transform="translate(323.3125 0)"/>
    <use xlink:href="#DejaVuSans-Oblique-48" transform="translate(386.6875 0)"/>
    <use xlink:href="#DejaVuSans-Oblique-3" transform="translate(448.21875 0)"/>
    <use xlink:href="#DejaVuSans-Oblique-45" transform="translate(480 0)"/>
    <use xlink:href="#DejaVuSans-Oblique-52" transform="translate(543.484375 0)"/>
    <use xlink:href="#DejaVuSans-Oblique-5b" transform="translate(604.671875 0)"/>
    <use xlink:href="#DejaVuSans-Oblique-f" transform="translate(663.859375 0)"/>
    <use xlink:href="#DejaVuSans-Oblique-3" transform="translate(695.640625 0)"/>
    <use xlink:href="#DejaVuSans-Oblique-28" transform="translate(727.421875 0)"/>
    <use xlink:href="#DejaVuSans-Oblique-34" transform="translate(790.609375 0)"/>
    <use xlink:href="#DejaVuSans-Oblique-38" transform="translate(869.328125 0)"/>
    <use xlink:href="#DejaVuSans-Oblique-24" transform="translate(942.515625 0)"/>
    <use xlink:href="#DejaVuSans-Oblique-2f" transform="translate(1010.921875 0)"/>
    <use xlink:href="#DejaVuSans-Oblique-3" transform="translate(1066.640625 0)"/>
    <use xlink:href="#DejaVuSans-Oblique-4e" transform="translate(1098.421875 0)"/>
    <use xlink:href="#DejaVuSans-Oblique-48" transform="translate(1156.328125 0)"/>
    <use xlink:href="#DejaVuSans-Oblique-48" transform="translate(1217.859375 0)"/>
    <use xlink:href="#DejaVuSans-Oblique-53" transform="translate(1279.390625 0)"/>
    <use xlink:href="#DejaVuSans-Oblique-56" transform="translate(1342.875 0)"/>
    <use xlink:href="#DejaVuSans-Oblique-3" transform="translate(1394.96875 0)"/>
    <use xlink:href="#DejaVuSans-Oblique-52" transform="translate(1426.75 0)"/>
    <use xlink:href="#DejaVuSans-Oblique-51" transform="translate(1487.9375 0)"/>
    <use xlink:href="#DejaVuSans-Oblique-48" transform="translate(1551.3125 0)"/>
    <use xlink:href="#DejaVuSans-Oblique-3" transform="translate(1612.84375 0)"/>
    <use xlink:href="#DejaVuSans-Oblique-58" transform="translate(1644.625 0)"/>
    <use xlink:href="#DejaVuSans-Oblique-51" transform="translate(1708 0)"/>
    <use xlink:href="#DejaVuSans-Oblique-4c" transform="translate(1771.375 0)"/>
    <use xlink:href="#DejaVuSans-Oblique-57" transform="translate(1799.15625 0)"/>
    <use xlink:href="#DejaVuSans-Oblique-3" transform="translate(1838.359375 0)"/>
    <use xlink:href="#DejaVuSans-Oblique-48" transform="translate(1870.140625 0)"/>
    <use xlink:href="#DejaVuSans-Oblique-54" transform="translate(1931.671875 0)"/>
    <use xlink:href="#DejaVuSans-Oblique-58" transform="translate(1995.15625 0)"/>
    <use xlink:href="#DejaVuSans-Oblique-44" transform="translate(2058.53125 0)"/>
    <use xlink:href="#DejaVuSans-Oblique-4f" transform="translate(2119.8125 0)"/>
    <use xlink:href="#DejaVuSans-Oblique-3" transform="translate(2147.59375 0)"/>
    <use xlink:href="#DejaVuSans-Oblique-52" transform="translate(2179.375 0)"/>
    <use xlink:href="#DejaVuSans-Oblique-51" transform="translate(2240.5625 0)"/>
    <use xlink:href="#DejaVuSans-Oblique-3" transform="translate(2303.9375 0)"/>
    <use xlink:href="#DejaVuSans-Oblique-45" transform="translate(2335.71875 0)"/>
    <use xlink:href="#DejaVuSans-Oblique-52" transform="translate(2399.203125 0)"/>
    <use xlink:href="#DejaVuSans-Oblique-57" transform="translate(2460.390625 0)"/>
    <use xlink:href="#DejaVuSans-Oblique-4b" transform="translate(2499.59375 0)"/>
    <use xlink:href="#DejaVuSans-Oblique-3" transform="translate(2562.96875 0)"/>
    <use xlink:href="#DejaVuSans-Oblique-44" transform="translate(2594.75 0)"/>
    <use xlink:href="#DejaVuSans-Oblique-5b" transform="translate(2656.03125 0)"/>
    <use xlink:href="#DejaVuSans-Oblique-48" transform="translate(2715.21875 0)"/>
    <use xlink:href="#DejaVuSans-Oblique-56" transform="translate(2776.75 0)"/>
    <use xlink:href="#DejaVuSans-Oblique-11" transform="translate(2828.84375 0)"/>
   </g>
  </g>
 </g>
 <defs>
  <clipPath id="p2a32e4a126">
   <rect x="18.14875" y="20.037891" width="237.745145" height="154.502254"/>
  </clipPath>
  <clipPath id="pd9e0fdeffa">
   <rect x="347.701384" y="20.037891" width="77.251127" height="154.502254"/>
  </clipPath>
 </defs>
</svg>
